<svg width="13" height="13" viewBox="0 0 13 13" fill="none" xmlns="http://www.w3.org/2000/svg">
<path d="M2.4375 3.45312C2.4375 2.86053 2.67291 2.29221 3.09193 1.87318C3.51096 1.45416 4.07928 1.21875 4.67188 1.21875C5.26447 1.21875 5.83279 1.45416 6.25182 1.87318C6.67084 2.29221 6.90625 2.86053 6.90625 3.45312C6.90625 4.04572 6.67084 4.61404 6.25182 5.03307C5.83279 5.45209 5.26447 5.6875 4.67188 5.6875C4.07928 5.6875 3.51096 5.45209 3.09193 5.03307C2.67291 4.61404 2.4375 4.04572 2.4375 3.45312ZM7.71875 4.67187C7.71875 4.4318 7.76604 4.19408 7.85791 3.97228C7.94978 3.75048 8.08444 3.54895 8.2542 3.3792C8.42395 3.20944 8.62548 3.07478 8.84728 2.98291C9.06908 2.89104 9.3068 2.84375 9.54688 2.84375C9.78695 2.84375 10.0247 2.89104 10.2465 2.98291C10.4683 3.07478 10.6698 3.20944 10.8396 3.3792C11.0093 3.54895 11.144 3.75048 11.2358 3.97228C11.3277 4.19408 11.375 4.4318 11.375 4.67187C11.375 5.15672 11.1824 5.62171 10.8396 5.96455C10.4967 6.30739 10.0317 6.5 9.54688 6.5C9.06203 6.5 8.59704 6.30739 8.2542 5.96455C7.91136 5.62171 7.71875 5.15672 7.71875 4.67187ZM0.8125 10.3594C0.8125 9.3358 1.21911 8.35416 1.94288 7.63038C2.66666 6.90661 3.64831 6.5 4.67188 6.5C5.69545 6.5 6.67709 6.90661 7.40087 7.63038C8.12464 8.35416 8.53125 9.3358 8.53125 10.3594V10.361L8.53071 10.4255C8.52956 10.4943 8.51091 10.5618 8.47651 10.6215C8.44212 10.6812 8.39311 10.7312 8.33408 10.7667C7.22862 11.4323 5.96226 11.7831 4.67188 11.7812C3.33288 11.7812 2.07946 11.4107 1.01021 10.7667C0.951086 10.7312 0.901965 10.6813 0.867472 10.6216C0.832978 10.5619 0.814247 10.4944 0.813042 10.4255L0.8125 10.3594ZM9.34375 10.361L9.34321 10.439C9.34018 10.6195 9.29707 10.7972 9.217 10.959C9.32606 10.9655 9.43601 10.9687 9.54688 10.9687C10.4114 10.9687 11.2298 10.7683 11.9578 10.4114C12.0235 10.3793 12.0794 10.33 12.1194 10.2688C12.1595 10.2076 12.1822 10.1367 12.1853 10.0636L12.1875 9.95312C12.1876 9.50778 12.075 9.06964 11.8603 8.67948C11.6456 8.28932 11.3357 7.9598 10.9594 7.72158C10.5831 7.48336 10.1527 7.34418 9.70817 7.31697C9.26365 7.28977 8.81948 7.37544 8.41696 7.566C9.01945 8.37257 9.34442 9.35262 9.34321 10.3594L9.34375 10.361Z" fill="#707579"/>
</svg>
